<svg width="1181" height="785" viewBox="0 0 1181 785" fill="none" xmlns="http://www.w3.org/2000/svg">
<g clip-path="url(#clip0_18_176)">
<path d="M19.9276 109.253L39.327 113.199C58.5849 117.145 97.3837 125.037 136.041 139.505C174.698 153.973 213.497 175.017 251.871 176.332C290.387 177.648 328.619 159.234 367.135 142.135C405.509 125.037 444.307 109.253 482.965 103.992C521.622 98.731 560.421 103.992 599.078 122.406C637.736 140.82 676.535 172.387 715.192 176.332C753.849 180.278 792.648 156.603 831.305 152.657C869.962 148.712 908.761 164.495 947.135 181.594C985.651 198.693 1023.88 217.107 1062.4 206.585C1100.77 196.062 1139.57 156.603 1178.23 143.45C1216.89 130.298 1165.27 130.298 1184.53 136.874L1203.93 143.45V-135.389V-141.657L1202.93 -140.989L1190.93 -130.302L1178.23 -120.92C1139.57 -103.822 1100.77 -61.7329 1062.4 -45.9495C1023.88 -30.1662 985.651 -40.6884 947.135 -51.2106C908.761 -61.7329 869.962 -72.2551 831.305 -81.4621C792.648 -90.6691 753.849 -98.5607 715.192 -111.714C676.535 -124.866 637.736 -128.812 599.078 -120.92C560.421 -113.029 521.622 -93.2996 482.965 -78.8315C444.307 -64.3635 405.509 -69.6245 367.135 -69.6245C328.619 -69.6245 262.562 -80.7411 229.062 -78.8315C190.688 -78.8315 131.832 17.0177 93.1749 -0.0809347L47.5623 -42.9901C47.5623 -42.9901 22.0623 -71.7104 -3.43774 -64.3635C-15.4377 -59.6881 -20.9922 -39.5465 -22.9385 -16.2751C-24.8847 6.99631 19.9276 109.253 19.9276 109.253Z" fill="#3C80FF"/>
<path d="M-23 108.417L-4.32233 111.86C14.219 115.303 51.5743 122.189 88.7933 132.517C126.012 142.846 163.368 156.618 200.314 156.618C237.397 156.618 274.207 142.846 311.289 127.353C348.236 111.86 385.591 94.6458 422.81 91.203C460.029 87.7601 497.384 98.0887 534.603 106.696C571.822 115.303 609.178 122.189 646.397 127.353C683.616 132.517 720.971 135.96 758.19 130.796C795.409 125.632 832.764 111.86 869.711 118.746C906.793 125.632 943.603 153.175 980.686 156.618C1017.63 160.06 1054.99 139.403 1092.21 129.075C1129.43 118.746 1166.78 118.746 1185.32 118.746H1204V-95.5285L1185.32 -104.136C1166.78 -112.743 1129.43 -129.957 1092.21 -112.743C1054.99 -95.5285 1017.63 -18.9688 980.686 -5.19737C943.603 8.57411 906.793 -15.526 869.711 -37.9046C832.764 -60.2833 795.409 -80.9405 758.19 -75.7762C720.971 -70.6119 683.616 -39.6261 646.397 -44.7904C609.178 -49.9547 571.822 -91.2691 534.603 -115.369C497.384 -139.469 460.029 -146.355 422.81 -139.469C385.591 -132.584 348.236 -111.926 311.289 -89.5477C274.207 -67.169 237.397 -43.0689 200.314 -44.7904C163.368 -46.5118 126.012 -36.1832 88.7933 -55.119C51.5743 -74.0548 15.3713 -81.3254 -3.17005 -86.4897L-23 -94.712V108.417Z" fill="#0066FF"/>
<path d="M-23 266.976L-4.32233 264.875C14.219 262.774 51.5743 258.572 88.7933 266.976C126.012 275.379 163.368 296.387 200.314 302.689C237.397 308.992 274.207 300.589 311.289 287.984C348.236 275.379 385.591 258.572 422.81 262.774C460.029 266.976 497.384 292.185 534.603 304.79C571.822 317.395 609.178 317.395 646.397 311.093C683.616 304.79 720.971 292.185 758.19 283.782C795.409 275.379 832.764 271.177 869.711 279.581C906.793 287.984 943.603 308.992 980.686 308.992C1017.63 308.992 1054.99 287.984 1092.21 287.984C1129.43 287.984 1166.78 308.992 1185.32 319.496L1204 330V106.442H1185.32C1166.78 106.442 1129.43 106.442 1092.21 119.047C1054.99 131.652 1017.63 156.862 980.686 152.66C943.603 148.459 906.793 114.846 869.711 106.442C832.764 98.039 795.409 114.846 758.19 121.148C720.971 127.45 683.616 123.249 646.397 116.946C609.178 110.644 571.822 102.241 534.603 91.7366C497.384 81.2325 460.029 68.6277 422.81 72.8293C385.591 77.0309 348.236 98.039 311.289 116.946C274.207 135.854 237.397 152.66 200.314 152.66C163.368 152.66 141.914 150.33 118.597 138.53C102.534 130.401 85.4351 118.401 58.4908 110.766C31.5466 103.131 -10.5991 105.182 -23 106.601V266.976Z" fill="#0059DD"/>
<path d="M-23 913H-4.32233C14.219 913 51.5743 913 88.7933 913C126.012 913 163.368 913 200.314 913C237.397 913 274.207 913 311.289 913C348.236 913 385.591 913 422.81 913C460.029 913 497.384 913 534.603 913C571.822 913 609.178 913 646.397 913C683.616 913 720.971 913 758.19 913C795.409 913 832.764 913 869.711 913C906.793 913 943.603 913 980.686 913C1017.63 913 1054.99 913 1092.21 913C1129.43 913 1166.78 913 1185.32 913H1204V243.425L1185.32 232.953C1166.78 222.481 1129.43 201.537 1092.21 201.537C1054.99 201.537 1017.63 222.481 980.686 222.481C943.603 222.481 906.793 201.537 869.711 193.16C832.764 184.782 795.409 188.971 758.19 197.348C720.971 205.726 683.616 218.292 646.397 224.575C609.178 230.859 571.822 230.859 534.603 218.292C497.384 205.726 460.029 180.593 422.81 176.405C385.591 172.216 348.236 188.971 311.289 201.537C274.207 214.103 237.397 222.481 200.314 216.198C163.368 209.915 126.012 188.971 88.7933 180.593C56.0014 167.514 31.7784 180.282 23.256 189.332C8.22944 204.555 -23 210.091 -23 210.091V913Z" fill="#004CBB"/>
</g>
<defs>
<clipPath id="clip0_18_176">
<rect width="1181" height="785" fill="white"/>
</clipPath>
</defs>
</svg>
