<svg width="2368" height="881" viewBox="0 0 2368 881" fill="none" xmlns="http://www.w3.org/2000/svg">
<g clip-path="url(#clip0_15_14)">
<path d="M1183.87 539.83L1203.26 542.784C1222.52 545.738 1261.32 551.645 1299.98 562.476C1338.64 573.307 1377.43 589.061 1415.81 590.045C1454.32 591.03 1492.56 577.245 1531.07 564.445C1569.45 551.645 1608.25 539.83 1646.9 535.892C1685.56 531.953 1724.36 535.892 1763.02 549.676C1801.67 563.461 1840.47 587.091 1879.13 590.045C1917.79 592.999 1956.59 575.276 1995.24 572.322C2033.9 569.368 2072.7 581.184 2111.07 593.984C2149.59 606.784 2187.82 620.569 2226.34 612.692C2264.71 604.815 2303.51 575.276 2342.17 565.43C2380.82 555.584 2329.21 555.584 2348.47 560.507L2367.87 565.43V356.692V352L2366.87 352.5L2354.87 360.5L2342.17 367.523C2303.51 380.323 2264.71 411.831 2226.34 423.646C2187.82 435.461 2149.59 427.584 2111.07 419.707C2072.7 411.831 2033.9 403.954 1995.24 397.061C1956.59 390.169 1917.79 384.261 1879.13 374.415C1840.47 364.569 1801.67 361.615 1763.02 367.523C1724.36 373.431 1685.56 388.2 1646.9 399.031C1608.25 409.861 1569.45 405.923 1531.07 405.923C1492.56 405.923 1426.5 397.601 1393 399.031C1354.63 399.031 1295.77 470.783 1257.11 457.983L1211.5 425.861C1211.5 425.861 1186 404.361 1160.5 409.861C1148.5 413.361 1142.95 428.439 1141 445.86C1139.05 463.281 1183.87 539.83 1183.87 539.83Z" fill="#3C80FF"/>
<path d="M1183.87 528.903L1201.89 531.391C1219.78 533.878 1255.83 538.852 1291.74 546.314C1327.66 553.775 1363.7 563.724 1399.35 563.724C1435.14 563.724 1470.66 553.775 1506.44 542.583C1542.09 531.391 1578.14 518.955 1614.05 516.468C1649.97 513.981 1686.01 521.442 1721.93 527.66C1757.84 533.878 1793.89 538.852 1829.8 542.583C1865.72 546.314 1901.76 548.801 1937.68 545.07C1973.59 541.339 2009.64 531.391 2045.29 536.365C2081.07 541.339 2116.59 561.237 2152.38 563.724C2188.03 566.211 2224.08 551.288 2259.99 543.826C2295.9 536.365 2331.95 536.365 2349.84 536.365H2367.87V381.571L2349.84 375.353C2331.95 369.136 2295.9 356.7 2259.99 369.136C2224.08 381.571 2188.03 436.879 2152.38 446.827C2116.59 456.776 2081.07 439.366 2045.29 423.199C2009.64 407.033 1973.59 392.11 1937.68 395.841C1901.76 399.571 1865.72 421.956 1829.8 418.225C1793.89 414.494 1757.84 384.648 1721.93 367.238C1686.01 349.828 1649.97 344.854 1614.05 349.828C1578.14 354.803 1542.09 369.725 1506.44 385.892C1470.66 402.059 1435.14 419.469 1399.35 418.225C1363.7 416.981 1327.66 424.443 1291.74 410.764C1255.83 397.084 1220.89 391.832 1203 388.101L1183.87 382.161V528.903Z" fill="#0066FF"/>
<path d="M1183.87 643.128L1201.89 641.614C1219.78 640.101 1255.83 637.074 1291.74 643.128C1327.66 649.181 1363.7 664.314 1399.35 668.854C1435.14 673.394 1470.66 667.341 1506.44 658.261C1542.09 649.181 1578.14 637.074 1614.05 640.101C1649.97 643.128 1686.01 661.288 1721.93 670.368C1757.84 679.448 1793.89 679.448 1829.8 674.908C1865.72 670.368 1901.76 661.288 1937.68 655.234C1973.59 649.181 2009.64 646.154 2045.29 652.208C2081.07 658.261 2116.59 673.394 2152.38 673.394C2188.03 673.394 2224.08 658.261 2259.99 658.261C2295.9 658.261 2331.95 673.394 2349.84 680.961L2367.87 688.528V527.487H2349.84C2331.95 527.487 2295.9 527.487 2259.99 536.567C2224.08 545.647 2188.03 563.807 2152.38 560.78C2116.59 557.753 2081.07 533.54 2045.29 527.487C2009.64 521.433 1973.59 533.54 1937.68 538.08C1901.76 542.62 1865.72 539.593 1829.8 535.053C1793.89 530.513 1757.84 524.46 1721.93 516.893C1686.01 509.327 1649.97 500.247 1614.05 503.273C1578.14 506.3 1542.09 521.433 1506.44 535.053C1470.66 548.673 1435.14 560.78 1399.35 560.78C1363.7 560.78 1343 559.101 1320.5 550.601C1305 544.746 1288.5 536.101 1262.5 530.601C1236.5 525.101 1195.83 526.579 1183.87 527.601V643.128Z" fill="#0059DD"/>
<path d="M1183.87 881H1201.89C1219.78 881 1255.83 881 1291.74 881C1327.66 881 1363.7 881 1399.35 881C1435.14 881 1470.66 881 1506.44 881C1542.09 881 1578.14 881 1614.05 881C1649.97 881 1686.01 881 1721.93 881C1757.84 881 1793.89 881 1829.8 881C1865.72 881 1901.76 881 1937.68 881C1973.59 881 2009.64 881 2045.29 881C2081.07 881 2116.59 881 2152.38 881C2188.03 881 2224.08 881 2259.99 881C2295.9 881 2331.95 881 2349.84 881H2367.87V663.687L2349.84 656.12C2331.95 648.554 2295.9 633.42 2259.99 633.42C2224.08 633.42 2188.03 648.554 2152.38 648.554C2116.59 648.554 2081.07 633.42 2045.29 627.367C2009.64 621.314 1973.59 624.34 1937.68 630.394C1901.76 636.447 1865.72 645.527 1829.8 650.067C1793.89 654.607 1757.84 654.607 1721.93 645.527C1686.01 636.447 1649.97 618.287 1614.05 615.26C1578.14 612.234 1542.09 624.34 1506.44 633.42C1470.66 642.5 1435.14 648.554 1399.35 644.014C1363.7 639.474 1327.66 624.34 1291.74 618.287C1260.1 608.836 1236.72 618.062 1228.5 624.601C1214 635.601 1183.87 639.601 1183.87 639.601V881Z" fill="#004CBB"/>
<path d="M19 570.454L38.3994 573.408C57.6572 576.362 77.4561 551.747 116.113 562.577C154.771 573.408 193.569 589.162 231.943 590.146C270.459 591.131 308.692 577.346 347.207 564.546C385.581 551.747 424.38 539.931 463.037 535.993C501.695 532.054 540.493 535.993 579.151 549.777C617.808 563.562 656.607 587.193 695.264 590.146C733.921 593.1 772.72 575.377 811.377 572.423C850.035 569.47 888.833 581.285 927.207 594.085C965.723 606.885 1003.96 620.669 1042.47 612.792C1080.85 604.916 1119.64 575.377 1158.3 565.531C1196.96 555.685 1145.34 555.685 1164.6 560.608L1184 565.531V386.793V382.101L1183 382.601L1171 390.601L1158.3 397.624C1119.64 410.424 1080.85 441.932 1042.47 453.747C1003.96 465.562 965.723 427.685 927.207 419.808C888.833 411.932 850.035 404.055 811.377 397.162C772.72 390.27 733.921 384.362 695.264 374.516C656.607 364.67 617.808 361.716 579.151 367.624C540.493 373.532 501.695 388.301 463.037 399.132C424.38 409.962 385.581 406.024 347.207 406.024C308.692 406.024 270.459 399.132 231.943 399.132C193.569 399.132 154.771 406.024 116.113 393.224C77.4561 380.424 57.6572 389.286 38.3994 378.455L19 367.624V570.454Z" fill="#3C80FF"/>
<path d="M0 529.005L18.0231 531.492C35.9147 533.979 71.9609 538.953 107.876 546.415C143.79 553.876 179.836 563.825 215.488 563.825C251.271 563.825 286.791 553.876 322.574 542.684C358.226 531.492 394.272 519.056 430.187 516.569C466.101 514.082 502.148 521.543 538.062 527.761C573.977 533.979 610.023 538.953 645.938 542.684C681.852 546.415 717.899 548.902 753.813 545.171C789.728 541.44 825.774 531.492 861.426 536.466C897.209 541.44 932.729 561.338 968.512 563.825C1004.16 566.312 1040.21 551.389 1076.12 543.927C1112.04 536.466 1148.09 536.466 1165.98 536.466H1184V381.672L1165.98 375.455C1148.09 369.237 1112.04 356.801 1076.12 369.237C1040.21 381.672 1004.16 436.98 968.512 446.928C932.729 456.877 897.209 439.467 861.426 423.3C825.774 407.134 789.728 392.211 753.813 395.942C717.899 399.672 681.852 422.057 645.938 418.326C610.023 414.595 573.977 384.749 538.062 367.339C502.148 349.929 466.101 344.955 430.187 349.929C394.272 354.904 358.226 369.827 322.574 385.993C286.791 402.16 251.271 419.57 215.488 418.326C179.836 417.083 143.79 397.185 107.876 383.506C71.9609 369.827 35.9147 362.365 18.0231 358.634L0 354.904V529.005Z" fill="#0066FF"/>
<path d="M0 621.414L18.0231 619.901C35.9147 618.388 71.9609 615.361 107.876 621.414C143.79 627.468 179.836 642.601 215.488 647.141C251.271 651.681 286.791 645.628 322.574 636.548C358.226 627.468 394.272 615.361 430.187 618.388C466.101 621.414 502.148 639.574 538.062 648.654C573.977 657.734 610.023 657.734 645.938 653.194C681.852 648.654 717.899 639.574 753.813 633.521C789.728 627.468 825.774 624.441 861.426 630.494C897.209 636.548 932.729 651.681 968.512 651.681C1004.16 651.681 1040.21 636.548 1076.12 636.548C1112.04 636.548 1148.09 651.681 1165.98 659.248L1184 666.814V527.588H1165.98C1148.09 527.588 1112.04 527.588 1076.12 536.668C1040.21 545.748 1004.16 563.908 968.512 560.881C932.729 557.854 897.209 533.641 861.426 527.588C825.774 521.534 789.728 533.641 753.813 538.181C717.899 542.721 681.852 539.694 645.938 535.154C610.023 530.614 573.977 524.561 538.062 516.994C502.148 509.428 466.101 500.348 430.187 503.374C394.272 506.401 358.226 521.534 322.574 535.154C286.791 548.774 251.271 560.881 215.488 560.881C179.836 560.881 143.79 548.774 107.876 539.694C71.9609 530.614 35.9147 524.561 18.0231 521.534L0 518.508V621.414Z" fill="#0059DD"/>
<path d="M0 881.101H18.0231C35.9147 881.101 71.9609 881.101 107.876 881.101C143.79 881.101 179.836 881.101 215.488 881.101C251.271 881.101 286.791 881.101 322.574 881.101C358.226 881.101 394.272 881.101 430.187 881.101C466.101 881.101 502.148 881.101 538.062 881.101C573.977 881.101 610.023 881.101 645.938 881.101C681.852 881.101 717.899 881.101 753.813 881.101C789.728 881.101 825.774 881.101 861.426 881.101C897.209 881.101 932.729 881.101 968.512 881.101C1004.16 881.101 1040.21 881.101 1076.12 881.101C1112.04 881.101 1148.09 881.101 1165.98 881.101H1184V639.101H1160.5C1160.5 639.101 1107.59 635.234 1076.12 633.521C1040.21 633.521 1004.16 648.654 968.512 648.654C932.729 648.654 897.209 633.521 861.426 627.468C825.774 621.414 789.728 624.441 753.813 630.494C717.899 636.548 681.852 645.628 645.938 650.168C610.023 654.708 573.977 654.708 538.062 645.628C502.148 636.548 466.101 618.388 430.187 615.361C394.272 612.334 358.226 624.441 322.574 633.521C286.791 642.601 251.271 648.654 215.488 644.114C179.836 639.574 143.79 624.441 107.876 618.388C71.9609 612.334 35.9147 615.361 18.0231 616.874L0 618.388V881.101Z" fill="#004CBB"/>
</g>
<defs>
<clipPath id="clip0_15_14">
<rect width="2368" height="881" fill="white"/>
</clipPath>
</defs>
</svg>
