<svg width="1184" height="1346" viewBox="0 0 1184 1346" fill="none" xmlns="http://www.w3.org/2000/svg">
<path d="M84 1010.24L102.023 1012.98C119.915 1015.72 155.961 1021.2 191.876 1031.25C227.79 1041.31 263.836 1055.93 299.488 1056.84C335.271 1057.75 370.791 1044.96 406.574 1033.08C442.226 1021.2 478.272 1010.24 514.187 1006.58C550.101 1002.93 586.148 1006.58 622.062 1019.38C657.977 1032.17 694.023 1054.1 729.938 1056.84C765.852 1059.58 801.899 1043.13 837.813 1040.39C873.728 1037.65 909.774 1048.62 945.426 1060.5C981.209 1072.37 1016.73 1085.17 1052.51 1077.86C1088.16 1070.55 1124.21 1043.13 1160.12 1034C1196.04 1024.86 1148.09 1024.86 1165.98 1029.43L1184 1034V840.276L1174.99 838.905L1165.98 837.534C1165.98 837.534 1196.04 838.448 1160.12 850.327C1124.21 862.206 1088.16 891.447 1052.51 902.412C1016.73 913.378 981.209 906.067 945.426 898.757C909.774 891.447 873.728 884.137 837.813 877.74C801.899 871.344 765.852 865.861 729.938 856.724C694.023 847.586 657.977 844.844 622.062 850.327C586.148 855.81 550.101 869.516 514.187 879.568C478.272 889.619 442.226 885.964 406.574 885.964C370.791 885.964 335.271 889.619 299.488 889.619C263.836 889.619 227.79 885.964 191.876 874.085C155.961 862.206 119.915 842.103 102.023 832.052L84 822V1010.24Z" fill="#3C80FF"/>
<path d="M0 996.178L18.0231 998.504C35.9147 1000.83 71.9609 1005.48 107.876 1012.46C143.79 1019.44 179.836 1028.74 215.488 1028.74C251.271 1028.74 286.791 1019.44 322.574 1008.97C358.226 998.504 394.272 986.874 430.187 984.549C466.101 982.223 502.148 989.2 538.062 995.015C573.977 1000.83 610.023 1005.48 645.938 1008.97C681.852 1012.46 717.899 1014.79 753.813 1011.3C789.728 1007.81 825.774 998.504 861.426 1003.16C897.209 1007.81 932.729 1026.42 968.512 1028.74C1004.16 1031.07 1040.21 1017.11 1076.12 1010.13C1112.04 1003.16 1148.09 1003.16 1165.98 1003.16H1184V875.229L1165.98 869.414C1148.09 863.599 1112.04 851.969 1076.12 863.599C1040.21 875.229 1004.16 910.118 968.512 919.422C932.729 928.726 897.209 912.444 861.426 897.325C825.774 882.207 789.728 868.251 753.813 871.74C717.899 875.229 681.852 896.162 645.938 892.673C610.023 889.184 573.977 861.273 538.062 844.991C502.148 828.71 466.101 824.058 430.187 828.71C394.272 833.362 358.226 847.317 322.574 862.436C286.791 877.555 251.271 893.836 215.488 892.673C179.836 891.51 143.79 872.903 107.876 860.11C71.9609 847.317 35.9147 840.339 18.0231 836.851L0 833.362V996.178Z" fill="#0066FF"/>
<path d="M0 1086.31L18.0231 1084.8C35.9147 1083.29 71.9609 1080.26 107.876 1086.31C143.79 1092.37 179.836 1107.5 215.488 1112.04C251.271 1116.58 286.791 1110.53 322.574 1101.45C358.226 1092.37 394.272 1080.26 430.187 1083.29C466.101 1086.31 502.148 1104.47 538.062 1113.55C573.977 1122.63 610.023 1122.63 645.938 1118.09C681.852 1113.55 717.899 1104.47 753.813 1098.42C789.728 1092.37 825.774 1089.34 861.426 1095.39C897.209 1101.45 932.729 1116.58 968.512 1116.58C1004.16 1116.58 1040.21 1101.45 1076.12 1101.45C1112.04 1101.45 1148.09 1116.58 1165.98 1124.15L1184 1131.71V992.487H1165.98C1148.09 992.487 1112.04 992.487 1076.12 1001.57C1040.21 1010.65 1004.16 1028.81 968.512 1025.78C932.729 1022.75 897.209 998.54 861.426 992.487C825.774 986.433 789.728 998.54 753.813 1003.08C717.899 1007.62 681.852 1004.59 645.938 1000.05C610.023 995.513 573.977 989.46 538.062 981.893C502.148 974.327 466.101 965.247 430.187 968.273C394.272 971.3 358.226 986.433 322.574 1000.05C286.791 1013.67 251.271 1025.78 215.488 1025.78C179.836 1025.78 143.79 1013.67 107.876 1004.59C71.9609 995.513 35.9147 989.46 18.0231 986.433L0 983.407V1086.31Z" fill="#0059DD"/>
<path d="M0 1346H18.0231C35.9147 1346 71.9609 1346 107.876 1346C143.79 1346 179.836 1346 215.488 1346C251.271 1346 286.791 1346 322.574 1346C358.226 1346 394.272 1346 430.187 1346C466.101 1346 502.148 1346 538.062 1346C573.977 1346 610.023 1346 645.938 1346C681.852 1346 717.899 1346 753.813 1346C789.728 1346 825.774 1346 861.426 1346C897.209 1346 932.729 1346 968.512 1346C1004.16 1346 1040.21 1346 1076.12 1346C1112.04 1346 1148.09 1346 1165.98 1346H1184V1128.69L1165.98 1121.12C1148.09 1113.55 1112.04 1098.42 1076.12 1098.42C1040.21 1098.42 1004.16 1113.55 968.512 1113.55C932.729 1113.55 897.209 1098.42 861.426 1092.37C825.774 1086.31 789.728 1089.34 753.813 1095.39C717.899 1101.45 681.852 1110.53 645.938 1115.07C610.023 1119.61 573.977 1119.61 538.062 1110.53C502.148 1101.45 466.101 1083.29 430.187 1080.26C394.272 1077.23 358.226 1089.34 322.574 1098.42C286.791 1107.5 251.271 1113.55 215.488 1109.01C179.836 1104.47 143.79 1089.34 107.876 1083.29C71.9609 1077.23 35.9147 1080.26 18.0231 1081.77L0 1083.29V1346Z" fill="#004CBB"/>
</svg>
