<svg width="854" height="1308" viewBox="0 0 854 1308" fill="none" xmlns="http://www.w3.org/2000/svg">
<g clip-path="url(#clip0_10_3)">
<path d="M-59 972.238L-40.9769 974.979C-23.0853 977.721 12.9609 983.203 48.8756 993.255C84.7902 1003.31 120.836 1017.93 156.488 1018.84C192.271 1019.75 227.791 1006.96 263.574 995.082C299.226 983.203 335.272 972.238 371.187 968.583C407.101 964.928 443.148 968.583 479.062 981.376C514.977 994.169 551.023 1016.1 586.938 1018.84C622.852 1021.58 658.899 1005.13 694.813 1002.39C730.728 999.651 766.774 1010.62 802.426 1022.5C838.209 1034.37 873.729 1047.17 909.512 1039.86C945.164 1032.55 981.21 1005.13 1017.12 995.996C1053.04 986.858 1005.09 986.858 1022.98 991.427L1041 995.996V802.276L1031.99 800.905L1022.98 799.534C1022.98 799.534 1053.04 800.448 1017.12 812.327C981.21 824.206 945.164 853.447 909.512 864.412C873.729 875.378 838.209 868.067 802.426 860.757C766.774 853.447 730.728 846.137 694.813 839.74C658.899 833.344 622.852 827.861 586.938 818.724C551.023 809.586 514.977 806.844 479.062 812.327C443.148 817.81 407.101 831.516 371.187 841.568C335.272 851.619 299.226 847.964 263.574 847.964C227.791 847.964 192.271 851.619 156.488 851.619C120.836 851.619 84.7902 847.964 48.8756 836.085C12.9609 824.206 -23.0853 804.103 -40.9769 794.052L-59 784V972.238Z" fill="#3C80FF"/>
<path d="M-143 958.178L-124.977 960.504C-107.085 962.83 -71.0391 967.482 -35.1244 974.46C0.790222 981.438 36.8365 990.742 72.488 990.742C108.271 990.742 143.791 981.438 179.574 970.971C215.226 960.504 251.272 948.874 287.187 946.549C323.101 944.223 359.148 951.2 395.062 957.015C430.977 962.83 467.023 967.482 502.938 970.971C538.852 974.46 574.899 976.786 610.813 973.297C646.728 969.808 682.774 960.504 718.426 965.156C754.209 969.808 789.729 988.416 825.512 990.742C861.164 993.068 897.21 979.112 933.125 972.134C969.039 965.156 1005.09 965.156 1022.98 965.156H1041V837.229L1022.98 831.414C1005.09 825.599 969.039 813.969 933.125 825.599C897.21 837.229 861.164 872.118 825.512 881.422C789.729 890.726 754.209 874.444 718.426 859.325C682.774 844.207 646.728 830.251 610.813 833.74C574.899 837.229 538.852 858.162 502.938 854.673C467.023 851.184 430.977 823.273 395.062 806.991C359.148 790.71 323.101 786.058 287.187 790.71C251.272 795.362 215.226 809.317 179.574 824.436C143.791 839.555 108.271 855.836 72.488 854.673C36.8365 853.51 0.790222 834.903 -35.1244 822.11C-71.0391 809.317 -107.085 802.339 -124.977 798.851L-143 795.362V958.178Z" fill="#0066FF"/>
<path d="M-143 1048.31L-124.977 1046.8C-107.085 1045.29 -71.0391 1042.26 -35.1244 1048.31C0.790222 1054.37 36.8365 1069.5 72.488 1074.04C108.271 1078.58 143.791 1072.53 179.574 1063.45C215.226 1054.37 251.272 1042.26 287.187 1045.29C323.101 1048.31 359.148 1066.47 395.062 1075.55C430.977 1084.63 467.023 1084.63 502.938 1080.09C538.852 1075.55 574.899 1066.47 610.813 1060.42C646.728 1054.37 682.774 1051.34 718.426 1057.39C754.209 1063.45 789.729 1078.58 825.512 1078.58C861.164 1078.58 897.21 1063.45 933.125 1063.45C969.039 1063.45 1005.09 1078.58 1022.98 1086.15L1041 1093.71V954.487H1022.98C1005.09 954.487 969.039 954.487 933.125 963.567C897.21 972.647 861.164 990.807 825.512 987.78C789.729 984.753 754.209 960.54 718.426 954.487C682.774 948.433 646.728 960.54 610.813 965.08C574.899 969.62 538.852 966.593 502.938 962.053C467.023 957.513 430.977 951.46 395.062 943.893C359.148 936.327 323.101 927.247 287.187 930.273C251.272 933.3 215.226 948.433 179.574 962.053C143.791 975.673 108.271 987.78 72.488 987.78C36.8365 987.78 0.790222 975.673 -35.1244 966.593C-71.0391 957.513 -107.085 951.46 -124.977 948.433L-143 945.407V1048.31Z" fill="#0059DD"/>
<path d="M-143 1308H-124.977C-107.085 1308 -71.0391 1308 -35.1244 1308C0.790222 1308 36.8365 1308 72.488 1308C108.271 1308 143.791 1308 179.574 1308C215.226 1308 251.272 1308 287.187 1308C323.101 1308 359.148 1308 395.062 1308C430.977 1308 467.023 1308 502.938 1308C538.852 1308 574.899 1308 610.813 1308C646.728 1308 682.774 1308 718.426 1308C754.209 1308 789.729 1308 825.512 1308C861.164 1308 897.21 1308 933.125 1308C969.039 1308 1005.09 1308 1022.98 1308H1041V1090.69L1022.98 1083.12C1005.09 1075.55 969.039 1060.42 933.125 1060.42C897.21 1060.42 861.164 1075.55 825.512 1075.55C789.729 1075.55 754.209 1060.42 718.426 1054.37C682.774 1048.31 646.728 1051.34 610.813 1057.39C574.899 1063.45 538.852 1072.53 502.938 1077.07C467.023 1081.61 430.977 1081.61 395.062 1072.53C359.148 1063.45 323.101 1045.29 287.187 1042.26C251.272 1039.23 215.226 1051.34 179.574 1060.42C143.791 1069.5 108.271 1075.55 72.488 1071.01C36.8365 1066.47 0.790222 1051.34 -35.1244 1045.29C-71.0391 1039.23 -107.085 1042.26 -124.977 1043.77L-143 1045.29V1308Z" fill="#004CBB"/>
</g>
<defs>
<clipPath id="clip0_10_3">
<rect width="854" height="1308" fill="white"/>
</clipPath>
</defs>
</svg>
